<?xml version="1.0" standalone="no"?>
<!DOCTYPE svg PUBLIC "-//W3C//DTD SVG 20010904//EN"
 "http://www.w3.org/TR/2001/REC-SVG-20010904/DTD/svg10.dtd">
<svg version="1.0" xmlns="http://www.w3.org/2000/svg"
 width="963.000000pt" height="154.000000pt" viewBox="0 0 963.000000 154.000000"
 preserveAspectRatio="xMidYMid meet">

<g transform="translate(0.000000,154.000000) scale(0.100000,-0.100000)"
fill="#000000" stroke="none">
<path d="M654 1506 c-56 -38 -144 -131 -144 -152 0 -7 -9 -28 -20 -46 -11 -18
-20 -43 -20 -56 0 -12 -20 -62 -44 -110 -24 -48 -58 -123 -76 -167 -18 -44
-45 -96 -61 -115 l-30 -35 27 65 c14 36 33 79 42 95 8 17 16 39 18 50 1 11 5
29 9 40 l8 20 -17 -20 c-17 -20 -17 -20 -12 4 7 34 -8 16 -50 -60 l-35 -64 4
145 c2 80 2 151 0 158 -7 20 -41 14 -48 -9 -6 -17 -9 -19 -16 -8 -5 8 -9 26
-9 40 0 38 -24 55 -55 41 -14 -7 -25 -16 -25 -22 0 -5 -6 -10 -14 -10 -17 0
-29 -30 -58 -155 -34 -149 -28 -337 18 -497 7 -24 90 -108 107 -108 8 0 20 7
27 15 7 9 19 14 26 11 19 -7 48 39 74 119 76 235 175 432 272 540 76 85 154
152 165 142 3 -4 1 -125 -5 -269 -15 -354 4 -569 60 -700 20 -47 115 -148 139
-148 7 0 4 7 -7 15 -18 14 -17 14 11 4 49 -17 110 -3 150 36 19 19 35 39 35
45 0 17 -59 4 -82 -16 -17 -17 -22 -17 -45 -4 -14 8 -35 28 -47 43 -20 27 -21
39 -20 315 0 213 5 319 17 409 9 67 17 151 17 187 0 69 -14 121 -29 111 -6 -3
-13 11 -16 32 -4 21 -10 47 -15 58 l-9 20 -1 -20 c-1 -16 -5 -12 -20 15 -11
19 -19 29 -20 22 0 -7 5 -22 10 -33 8 -15 7 -19 -3 -19 -20 0 -42 27 -26 32 9
3 9 9 0 26 -10 18 -20 22 -59 22 -37 0 -58 -7 -98 -34z m146 4 c0 -5 -2 -10
-4 -10 -3 0 -8 5 -11 10 -3 6 -1 10 4 10 6 0 11 -4 11 -10z m-589 -570 c-6
-44 -9 -53 -10 -29 -1 37 9 102 15 96 2 -1 -1 -32 -5 -67z"/>
<path d="M4808 1396 c-32 -18 -41 -19 -58 -8 -20 12 -23 9 -50 -52 -62 -135
-74 -204 -75 -396 0 -160 2 -183 27 -272 15 -54 38 -119 52 -146 32 -62 93
-118 148 -133 24 -6 67 -20 95 -31 57 -22 102 -19 157 9 70 36 207 192 213
241 1 15 4 41 6 57 1 17 19 57 40 90 l37 59 0 -64 c0 -115 53 -348 71 -318 7
10 9 10 9 -2 1 -9 6 -6 14 9 l13 23 7 -32 c3 -18 9 -30 13 -26 4 3 13 -6 20
-21 12 -26 13 -26 7 -3 -41 171 -41 188 -8 450 14 113 28 238 31 278 3 39 10
72 14 72 14 0 10 30 -4 36 -19 7 -63 -18 -88 -50 -21 -27 -69 -171 -69 -208 0
-31 -62 -152 -70 -138 -6 9 -15 -1 -30 -31 -76 -148 -183 -265 -269 -294 -43
-14 -53 -14 -83 -2 -133 56 -177 302 -113 632 29 150 38 249 23 278 -11 22
-34 20 -80 -7z m482 -735 c0 -5 -16 -28 -35 -51 -44 -52 -46 -43 -3 16 32 45
38 51 38 35z m187 -38 c-3 -10 -5 -2 -5 17 0 19 2 27 5 18 2 -10 2 -26 0 -35z
m10 -85 c-3 -7 -5 -2 -5 12 0 14 2 19 5 13 2 -7 2 -19 0 -25z m40 -100 c-3 -8
-6 -5 -6 6 -1 11 2 17 5 13 3 -3 4 -12 1 -19z"/>
<path d="M8621 1392 c-1 -13 -5 -20 -11 -17 -5 3 -10 1 -10 -5 0 -8 -6 -7 -21
1 -28 15 -33 6 -58 -101 -50 -213 -56 -437 -18 -695 29 -194 32 -205 58 -205
10 0 19 -4 19 -10 0 -6 8 -6 23 1 19 8 22 17 20 57 l-1 47 7 -40 c7 -34 8 -29
10 38 0 42 5 77 10 77 4 0 56 -18 115 -40 116 -44 120 -45 111 -30 -9 15 1 12
55 -15 57 -29 60 -29 60 -12 0 12 -128 87 -150 87 -7 0 -10 -7 -6 -17 5 -13 0
-11 -18 6 -15 14 -26 30 -26 37 0 7 -16 21 -35 33 -19 11 -35 26 -35 33 0 7
-9 19 -20 26 -27 17 -25 26 15 71 36 39 45 58 23 45 -7 -4 -4 3 7 15 30 35 33
0 3 -41 -19 -28 -13 -25 47 23 39 30 94 72 123 93 59 43 66 69 30 111 -18 21
-28 24 -53 19 -55 -12 -109 -46 -177 -111 l-66 -65 4 39 c29 257 40 498 24
518 -9 11 -16 13 -24 5 -7 -7 -14 -2 -22 18 -12 26 -12 26 -13 4z m-94 -864
c-3 -8 -6 -5 -6 6 -1 11 2 17 5 13 3 -3 4 -12 1 -19z m90 -35 c-3 -10 -5 -2
-5 17 0 19 2 27 5 18 2 -10 2 -26 0 -35z"/>
<path d="M3510 1283 c-28 -10 -69 -56 -75 -83 -4 -16 0 -43 9 -64 14 -32 19
-36 53 -36 21 0 59 10 83 23 43 21 45 24 45 67 -1 38 -4 45 -20 45 -13 0 -19
6 -17 18 2 11 -4 17 -17 17 -11 0 -23 5 -26 10 -7 11 -12 11 -35 3z"/>
<path d="M5950 1056 c-98 -34 -184 -121 -230 -232 -53 -128 -63 -229 -30 -301
20 -46 48 -60 98 -50 32 7 58 -6 48 -22 -11 -17 0 -14 69 19 73 35 127 90 181
184 21 36 42 66 46 66 4 0 8 -27 8 -60 0 -61 5 -69 30 -47 8 6 1 -4 -16 -23
-17 -19 -46 -64 -64 -100 -18 -36 -37 -71 -43 -78 -5 -7 -27 -65 -49 -130 -49
-145 -49 -205 1 -253 25 -23 37 -28 59 -23 48 12 62 24 62 53 0 16 14 58 30
94 17 37 30 81 31 99 0 26 2 29 8 14 4 -11 10 -15 14 -10 20 33 36 259 21 299
-6 14 -8 14 -27 -2 -19 -18 -20 -17 -8 4 6 12 16 25 21 28 16 10 11 35 -7 35
-13 0 -14 3 -5 12 15 15 16 99 0 133 -13 29 -55 55 -76 48 -6 -3 -32 -36 -57
-74 -83 -128 -152 -189 -214 -189 -24 0 -32 5 -37 26 -17 66 33 182 112 262
57 56 90 66 131 37 35 -24 70 -5 84 47 15 56 0 84 -66 120 -56 30 -75 32 -125
14z m-187 -473 c5 -43 -7 -59 -18 -24 -5 17 3 77 10 69 1 -2 5 -22 8 -45z
m363 -130 c-4 -16 -9 -55 -12 -88 -16 -187 -93 -394 -82 -220 2 39 0 60 -5 52
-5 -7 -7 -3 -3 13 3 14 6 29 6 33 0 5 4 6 9 2 6 -3 9 3 8 13 -1 18 74 222 82
222 2 0 0 -12 -3 -27z m50 -103 c-12 -38 -14 -41 -15 -17 -1 16 5 49 12 75 11
43 12 44 15 17 1 -16 -4 -50 -12 -75z m-85 -277 c-12 -20 -14 -14 -5 12 4 9 9
14 11 11 3 -2 0 -13 -6 -23z"/>
<path d="M6096 383 c-6 -14 -5 -15 5 -6 7 7 10 15 7 18 -3 3 -9 -2 -12 -12z"/>
<path d="M1256 981 c-43 -27 -95 -65 -114 -83 -77 -74 -121 -230 -89 -320 9
-24 18 -60 22 -80 7 -43 32 -76 60 -79 11 -2 49 1 85 5 78 9 144 51 175 112
31 62 99 145 106 131 4 -6 9 -29 13 -49 9 -49 62 -164 78 -171 10 -3 13 6 13
37 -1 23 -5 48 -9 55 -5 7 -12 47 -17 89 -5 49 -14 81 -24 88 -8 6 -15 16 -15
23 0 20 -31 61 -46 61 -8 0 -35 -28 -62 -62 -98 -129 -173 -198 -215 -198 -46
0 4 202 66 268 40 44 77 56 164 57 45 0 85 3 89 7 4 4 -4 17 -17 28 l-24 21
28 -4 c15 -2 27 0 27 5 0 43 -85 97 -162 104 -50 5 -58 2 -132 -45z"/>
<path d="M9445 1014 c-27 -7 -67 -13 -88 -14 -56 0 -104 -29 -185 -113 -133
-138 -154 -251 -71 -391 12 -20 19 -40 15 -43 -11 -11 54 -33 99 -33 46 0 224
59 281 92 31 18 85 98 67 98 -4 0 -48 -20 -98 -45 -101 -51 -200 -75 -238 -58
-51 24 -41 133 22 230 63 98 153 157 229 151 31 -3 37 -7 40 -28 4 -34 -35
-89 -78 -111 -19 -10 -60 -23 -90 -28 -47 -7 -50 -9 -18 -10 20 0 44 -4 54 -8
13 -5 15 -3 9 7 -5 8 -3 11 6 8 8 -3 20 1 27 9 16 16 32 17 32 2 0 -28 -92
-41 -180 -25 -33 6 -33 6 -8 -5 23 -9 27 -15 22 -36 -12 -48 35 -55 140 -23
83 26 127 64 167 146 30 60 31 66 19 106 -6 24 -14 56 -17 71 -10 52 -76 73
-158 51z m89 -196 c-11 -35 -55 -89 -66 -81 -7 3 -3 12 10 22 11 9 27 31 36
49 19 37 31 43 20 10z"/>
<path d="M1852 993 c-39 -21 -104 -101 -95 -116 3 -6 1 -7 -6 -3 -7 5 -17 -5
-26 -28 -22 -52 -18 -68 5 -21 11 22 17 29 13 15 -13 -42 -2 -206 17 -270 10
-33 14 -60 9 -60 -5 0 -23 21 -39 47 -33 52 -39 52 -13 -1 23 -49 130 -118
192 -124 37 -3 61 2 115 27 76 34 139 92 129 118 -4 11 -3 14 5 9 14 -8 15 0
13 69 -3 58 -26 157 -47 198 -9 16 -29 33 -45 39 -21 7 -27 14 -20 21 13 13
-66 87 -95 87 -12 0 -34 2 -50 5 -18 4 -41 -1 -62 -12z m217 -174 c6 -18 11
-58 11 -89 0 -80 -28 -120 -97 -139 -90 -24 -133 1 -133 77 1 83 64 182 108
168 10 -4 30 -2 43 3 42 17 57 12 68 -20z"/>
<path d="M6397 1003 c-4 -3 -7 -15 -7 -25 0 -10 -4 -18 -10 -18 -5 0 -10 -19
-10 -42 l-1 -43 -14 38 c-17 49 -19 51 -36 31 -25 -30 -17 -192 15 -309 29
-107 50 -151 80 -169 11 -6 28 -19 38 -29 10 -9 32 -17 48 -17 68 0 128 55
169 156 26 63 51 94 51 62 0 -8 7 -38 16 -68 17 -57 87 -140 119 -140 24 0 67
25 90 51 l20 24 -22 -19 c-39 -33 -23 7 47 116 38 58 91 201 104 278 4 25 1
20 -11 -15 -8 -27 -19 -52 -23 -55 -4 -3 -24 -38 -45 -77 -39 -76 -111 -167
-125 -158 -4 2 -19 43 -34 90 -22 71 -31 87 -56 100 -16 8 -31 24 -35 35 -10
31 -22 23 -18 -12 l3 -33 -12 32 c-28 71 -40 65 -109 -57 -47 -84 -96 -150
-110 -150 -29 0 -69 180 -71 318 -1 57 -6 88 -15 98 -16 15 -26 18 -36 7z
m447 -419 c3 -8 2 -12 -4 -9 -6 3 -10 10 -10 16 0 14 7 11 14 -7z m86 -47 c0
-9 -102 -68 -107 -63 -4 3 -1 6 6 6 7 0 9 5 5 12 -4 7 -3 8 5 4 6 -4 25 4 42
18 27 23 49 33 49 23z"/>
<path d="M8084 996 c-37 -16 -118 -109 -139 -159 -21 -50 -18 -59 6 -17 11 19
17 26 15 15 -19 -77 -19 -78 -6 -70 10 6 12 -5 7 -54 -4 -45 0 -82 13 -129 10
-37 17 -68 15 -70 -1 -2 -16 14 -31 35 -41 56 -43 58 -37 33 15 -57 151 -150
220 -150 71 0 232 93 230 132 0 7 1 22 2 33 1 16 3 17 11 5 14 -23 3 105 -15
175 -19 73 -38 103 -71 116 -14 5 -24 15 -21 22 6 17 -67 87 -91 87 -11 0 -32
2 -48 5 -16 3 -43 -1 -60 -9z m207 -178 c8 -18 14 -59 14 -90 0 -92 -51 -141
-148 -142 -59 -1 -87 26 -87 83 0 75 72 181 112 166 8 -3 25 -1 39 4 42 17 56
12 70 -21z"/>
<path d="M3500 955 c-7 -8 -16 -64 -21 -125 -8 -89 -7 -123 5 -173 8 -34 23
-98 32 -142 9 -44 21 -83 27 -87 6 -3 18 4 28 15 16 20 18 21 24 5 16 -41 22
-9 30 150 13 260 12 336 -4 356 -18 21 -30 5 -31 -39 l-1 -30 -17 34 c-20 40
-55 57 -72 36z"/>
<path d="M7250 960 c0 -5 -9 -10 -20 -10 -31 0 -50 -40 -62 -133 -23 -174 17
-292 117 -342 30 -16 55 -34 55 -40 0 -32 87 -22 169 20 62 31 187 165 205
220 5 16 2 15 -14 -5 -11 -14 -20 -29 -20 -34 0 -5 -3 -7 -6 -4 -6 7 39 83 56
93 6 4 10 -5 10 -21 0 -48 22 -154 31 -149 4 3 11 -11 14 -32 20 -116 31 -87
38 95 3 82 1 142 -4 142 -5 0 -10 -35 -11 -77 l-1 -78 -11 107 c-6 58 -14 110
-18 114 -5 4 -8 20 -8 35 0 15 -4 30 -8 33 -11 7 -97 -83 -157 -164 -133 -180
-202 -211 -248 -112 -19 41 -22 65 -22 181 -1 127 -2 134 -24 152 -25 20 -61
26 -61 9z m-10 -231 c0 -19 7 -59 16 -88 8 -29 13 -55 11 -58 -8 -7 -35 96
-42 157 -5 40 -4 51 4 40 6 -8 11 -31 11 -51z"/>
<path d="M2561 922 c-29 -21 -74 -65 -100 -99 l-47 -60 -18 31 c-11 18 -21 26
-23 19 -8 -22 -24 -14 -21 10 2 18 -1 21 -22 19 -14 -2 -29 -7 -33 -12 -18
-16 -48 -184 -41 -225 5 -31 8 -36 14 -20 6 16 8 14 13 -14 4 -18 11 -30 17
-26 6 4 10 -7 10 -27 0 -80 30 -102 69 -52 12 15 21 21 21 14 0 -16 79 72 102
114 9 17 17 39 18 49 0 19 68 127 81 127 4 0 10 -39 14 -87 4 -49 16 -122 26
-163 21 -85 46 -114 91 -108 15 3 28 1 28 -4 0 -23 41 -3 65 32 15 22 30 40
32 40 2 0 1 -4 -2 -10 -3 -5 -4 -10 0 -10 3 0 16 24 30 52 43 91 171 288 188
288 4 0 7 -44 7 -97 0 -90 3 -103 31 -158 37 -71 55 -92 91 -111 24 -12 32
-12 60 0 46 20 178 162 178 191 0 25 -40 17 -77 -16 -20 -17 -39 -27 -43 -22
-5 4 -22 57 -39 116 -32 112 -51 151 -82 167 -20 11 -79 2 -94 -15 -5 -6 -23
-17 -39 -24 -27 -11 -28 -11 -15 5 16 20 7 16 -46 -20 -16 -12 -37 -22 -45
-24 -20 -5 -57 -39 -90 -85 l-28 -37 -7 50 c-8 55 -23 78 -18 27 3 -34 -18 33
-34 107 -4 22 -13 41 -20 43 -7 3 -10 -4 -7 -19 3 -13 -2 -9 -11 12 -26 56
-44 70 -89 70 -32 0 -54 -9 -95 -38z m151 -44 c-9 -9 -12 -7 -12 12 0 19 3 21
12 12 9 -9 9 -15 0 -24z m25 -70 c-3 -8 -6 -5 -6 6 -1 11 2 17 5 13 3 -3 4
-12 1 -19z"/>
<path d="M7066 925 c-3 -9 -6 -22 -5 -28 0 -7 5 -1 10 12 5 13 8 26 5 28 -2 2
-6 -3 -10 -12z"/>
<path d="M7842 780 c0 -14 2 -19 5 -12 2 6 2 18 0 25 -3 6 -5 1 -5 -13z"/>
</g>
</svg>
