<?xml version="1.0" standalone="no"?>
<!DOCTYPE svg PUBLIC "-//W3C//DTD SVG 20010904//EN"
 "http://www.w3.org/TR/2001/REC-SVG-20010904/DTD/svg10.dtd">
<svg version="1.0" xmlns="http://www.w3.org/2000/svg"
 width="96.000000pt" height="102.000000pt" viewBox="0 0 96.000000 102.000000"
 preserveAspectRatio="xMidYMid meet">

<g transform="translate(0.000000,102.000000) scale(0.100000,-0.100000)"
fill="#000000" stroke="none">
<path d="M487 802 c-22 -24 -47 -107 -47 -154 0 -20 -4 -48 -10 -62 -9 -24
-14 -26 -72 -26 -72 0 -140 -18 -165 -43 -13 -13 -15 -23 -7 -44 11 -33 76
-53 172 -53 l62 0 0 -97 c0 -112 20 -163 63 -163 45 0 69 46 87 173 l13 87 61
0 c92 0 158 21 174 53 19 40 3 61 -60 75 -29 7 -78 13 -108 15 l-55 2 -6 114
c-5 95 -9 116 -24 128 -26 18 -59 16 -78 -5z"/>
</g>
</svg>
